<svg xmlns="http://www.w3.org/2000/svg" viewBox="0 0 700 700">
  <rect width="700" height="700" rx="110" fill="#FFCC00"/>
  <g fill="#000000" transform="translate(80,598) scale(1,-1)">
    <path d="M350 316V401H80V496H444V94H511V0H363L353 53H350Q338 31 302.0 15.0Q266 -1 212 -1Q124 -1 77.0 45.5Q30 92 30 164Q30 239 86.0 277.5Q142 316 236 316ZM350 231H250Q218 231 195.0 224.0Q172 217 157.5 206.5Q143 196 136.5 182.5Q130 169 130 156Q130 130 146.5 113.0Q163 96 184.0 90.0Q205 84 225 84Q232 84 250.5 85.5Q269 87 293.0 98.5Q317 110 333.5 131.0Q350 152 350 181Z"/>
  </g>
</svg>